<mxfile host="65bd71144e">
    <diagram id="cTVMF00tNWKo-Rz94SLu" name="Page-1">
        <mxGraphModel dx="4077" dy="1469" grid="1" gridSize="10" guides="1" tooltips="1" connect="1" arrows="1" fold="1" page="1" pageScale="1" pageWidth="850" pageHeight="1100" math="0" shadow="0">
            <root>
                <mxCell id="0"/>
                <mxCell id="1" parent="0"/>
                <mxCell id="2" value="Visiteur" style="shape=umlActor;verticalLabelPosition=bottom;verticalAlign=top;html=1;outlineConnect=0;fillColor=#a0522d;strokeColor=#6D1F00;fontSize=30;strokeWidth=5;fontColor=#000000;gradientColor=default;fontStyle=1" vertex="1" parent="1">
                    <mxGeometry x="-1600" y="80" width="80" height="120" as="geometry"/>
                </mxCell>
                <mxCell id="3" value="Page de création de publication" style="rounded=1;whiteSpace=wrap;html=1;fontSize=32;fontStyle=5" vertex="1" parent="1">
                    <mxGeometry x="-350" y="80" width="300" height="160" as="geometry"/>
                </mxCell>
                <mxCell id="4" value="" style="endArrow=none;dashed=1;html=1;fontSize=32;dashPattern=12 12;strokeWidth=2;" edge="1" parent="1">
                    <mxGeometry width="50" height="50" relative="1" as="geometry">
                        <mxPoint x="-1560" y="1120" as="sourcePoint"/>
                        <mxPoint x="-1560" y="250" as="targetPoint"/>
                    </mxGeometry>
                </mxCell>
                <mxCell id="5" value="" style="endArrow=none;dashed=1;html=1;fontSize=32;dashPattern=12 12;strokeWidth=2;startArrow=none;" edge="1" parent="1" source="7" target="3">
                    <mxGeometry width="50" height="50" relative="1" as="geometry">
                        <mxPoint x="-200" y="1140" as="sourcePoint"/>
                        <mxPoint x="-591" y="250" as="targetPoint"/>
                    </mxGeometry>
                </mxCell>
                <mxCell id="6" value="" style="rounded=1;whiteSpace=wrap;html=1;fontSize=32;" vertex="1" parent="1">
                    <mxGeometry x="-1110" y="1230" width="80" height="100" as="geometry"/>
                </mxCell>
                <mxCell id="8" value="" style="endArrow=none;dashed=1;html=1;fontSize=32;dashPattern=12 12;strokeWidth=2;" edge="1" parent="1" target="7">
                    <mxGeometry width="50" height="50" relative="1" as="geometry">
                        <mxPoint x="-200.00000000000045" y="1140" as="sourcePoint"/>
                        <mxPoint x="-200.00000000000045" y="240" as="targetPoint"/>
                    </mxGeometry>
                </mxCell>
                <mxCell id="7" value="" style="rounded=1;whiteSpace=wrap;html=1;fontSize=32;" vertex="1" parent="1">
                    <mxGeometry x="-240" y="319" width="80" height="161" as="geometry"/>
                </mxCell>
                <mxCell id="9" value="" style="endArrow=classic;html=1;strokeWidth=5;fontSize=32;entryX=0;entryY=0.25;entryDx=0;entryDy=0;startArrow=none;" edge="1" parent="1" source="13" target="7">
                    <mxGeometry width="50" height="50" relative="1" as="geometry">
                        <mxPoint x="-1560" y="355" as="sourcePoint"/>
                        <mxPoint x="-240.00000000000045" y="354.5" as="targetPoint"/>
                    </mxGeometry>
                </mxCell>
                <mxCell id="14" value="" style="endArrow=none;html=1;strokeWidth=5;fontSize=32;entryX=0;entryY=0.25;entryDx=0;entryDy=0;" edge="1" parent="1" target="13">
                    <mxGeometry width="50" height="50" relative="1" as="geometry">
                        <mxPoint x="-1560" y="354" as="sourcePoint"/>
                        <mxPoint x="-240.00000000000045" y="354.4999999999998" as="targetPoint"/>
                    </mxGeometry>
                </mxCell>
                <mxCell id="13" value="Saisie contenu()" style="text;html=1;strokeColor=none;fillColor=none;align=center;verticalAlign=middle;whiteSpace=wrap;rounded=0;fontSize=35;" vertex="1" parent="1">
                    <mxGeometry x="-1060" y="346" width="280" height="30" as="geometry"/>
                </mxCell>
                <mxCell id="15" value="" style="endArrow=classic;html=1;strokeWidth=5;fontSize=35;exitX=0;exitY=0.25;exitDx=0;exitDy=0;dashed=1;startArrow=none;" edge="1" parent="1" source="16">
                    <mxGeometry width="50" height="50" relative="1" as="geometry">
                        <mxPoint x="-630" y="750" as="sourcePoint"/>
                        <mxPoint x="-1570" y="478" as="targetPoint"/>
                    </mxGeometry>
                </mxCell>
                <mxCell id="17" value="" style="endArrow=none;html=1;strokeWidth=5;fontSize=35;exitX=0;exitY=1;exitDx=0;exitDy=0;dashed=1;" edge="1" parent="1" source="7" target="16">
                    <mxGeometry width="50" height="50" relative="1" as="geometry">
                        <mxPoint x="-240.00000000000045" y="484.7500000000002" as="sourcePoint"/>
                        <mxPoint x="-1560" y="480" as="targetPoint"/>
                    </mxGeometry>
                </mxCell>
                <mxCell id="16" value="Damande d'ajout de pièce jointes" style="text;html=1;strokeColor=none;fillColor=none;align=center;verticalAlign=middle;whiteSpace=wrap;rounded=0;fontSize=35;" vertex="1" parent="1">
                    <mxGeometry x="-1110" y="470" width="560" height="30" as="geometry"/>
                </mxCell>
                <mxCell id="18" value="" style="rounded=1;whiteSpace=wrap;html=1;fontSize=32;" vertex="1" parent="1">
                    <mxGeometry x="-240" y="560" width="80" height="550" as="geometry"/>
                </mxCell>
                <mxCell id="19" value="" style="endArrow=classic;html=1;dashed=1;strokeWidth=5;fontSize=35;entryX=0;entryY=0;entryDx=0;entryDy=0;startArrow=none;exitX=1;exitY=0.75;exitDx=0;exitDy=0;" edge="1" parent="1" source="21" target="18">
                    <mxGeometry width="50" height="50" relative="1" as="geometry">
                        <mxPoint x="-1560" y="560" as="sourcePoint"/>
                        <mxPoint x="-580" y="610" as="targetPoint"/>
                    </mxGeometry>
                </mxCell>
                <mxCell id="22" value="" style="endArrow=none;html=1;dashed=1;strokeWidth=5;fontSize=35;entryX=0;entryY=0.75;entryDx=0;entryDy=0;" edge="1" parent="1" target="21">
                    <mxGeometry width="50" height="50" relative="1" as="geometry">
                        <mxPoint x="-1560" y="560" as="sourcePoint"/>
                        <mxPoint x="-240.00000000000045" y="560.0000000000005" as="targetPoint"/>
                    </mxGeometry>
                </mxCell>
                <mxCell id="21" value="Ajout de pièce(s) jointe(s)" style="text;html=1;strokeColor=none;fillColor=none;align=center;verticalAlign=middle;whiteSpace=wrap;rounded=0;fontSize=35;" vertex="1" parent="1">
                    <mxGeometry x="-1050" y="540" width="400" height="30" as="geometry"/>
                </mxCell>
            </root>
        </mxGraphModel>
    </diagram>
</mxfile>